<?xml version="1.0" encoding="UTF-8" standalone="no"?>
<!DOCTYPE svg PUBLIC "-//W3C//DTD SVG 1.1//EN" "http://www.w3.org/Graphics/SVG/1.1/DTD/svg11.dtd">
<svg version="1.1" xmlns="http://www.w3.org/2000/svg" xmlns:xlink="http://www.w3.org/1999/xlink" preserveAspectRatio="xMidYMid meet" viewBox="54.957446808510724 23.384561968463117 463.8155531914893 527.9513677811552" width="459.82" height="523.95"><defs><path d="M339.41 25.25L349.97 26.33L360.4 27.82L370.7 29.71L380.86 32L390.86 34.69L400.7 37.75L410.37 41.19L419.87 44.99L429.17 49.14L438.28 53.64L447.19 58.49L455.89 63.66L464.36 69.15L472.61 74.96L480.62 81.07L488.38 87.48L495.89 94.18L503.14 101.15L510.12 108.4L515.7 114.66L416.42 164.05L415.48 163.27L410.68 159.6L405.73 156.12L400.65 152.83L395.44 149.73L390.1 146.82L384.63 144.12L379.05 141.63L373.36 139.35L367.56 137.29L361.66 135.46L355.66 133.85L349.57 132.47L343.4 131.34L337.14 130.44L330.81 129.8L324.4 129.41L317.93 129.28L311.46 129.41L305.06 129.8L298.72 130.44L292.47 131.34L286.29 132.47L280.2 133.85L274.21 135.46L268.31 137.29L262.51 139.35L256.81 141.63L251.23 144.12L245.77 146.82L240.43 149.73L235.21 152.83L230.13 156.12L225.19 159.6L220.38 163.27L215.73 167.11L211.23 171.13L206.88 175.31L202.7 179.65L198.68 184.16L194.84 188.81L191.18 193.61L187.69 198.56L184.4 203.64L181.3 208.86L178.4 214.2L175.7 219.66L173.2 225.24L170.92 230.93L168.86 236.73L167.03 242.63L165.42 248.63L164.04 254.72L162.91 260.89L162.02 267.15L161.37 273.48L160.98 279.89L160.85 286.36L160.98 292.83L161.37 299.24L162.02 305.57L162.91 311.83L164.04 318L165.42 324.09L167.03 330.09L168.86 335.99L170.92 341.79L173.2 347.48L175.7 353.06L178.4 358.52L181.3 363.86L184.4 369.08L187.69 374.16L191.18 379.11L194.84 383.91L198.68 388.56L202.7 393.07L206.88 397.41L211.23 401.6L215.73 405.61L220.38 409.45L225.19 413.12L230.13 416.6L235.21 419.89L240.43 423L245.77 425.9L251.23 428.6L256.81 431.09L262.51 433.37L268.31 435.43L274.21 437.27L280.2 438.87L286.29 440.25L292.47 441.38L298.72 442.28L305.06 442.92L311.46 443.31L317.93 443.44L324.4 443.31L330.81 442.92L337.14 442.28L343.4 441.38L349.57 440.25L355.66 438.87L361.66 437.27L367.56 435.43L373.36 433.37L379.05 431.09L384.63 428.6L390.1 425.9L395.44 423L400.65 419.89L405.73 416.6L410.68 413.12L415.48 409.45L416.89 408.29L515.77 457.98L510.12 464.32L503.14 471.57L495.89 478.54L488.38 485.24L480.62 491.65L472.61 497.76L464.36 503.57L455.89 509.06L447.19 514.23L438.28 519.08L429.17 523.58L419.87 527.73L410.37 531.54L400.7 534.97L390.86 538.03L380.86 540.72L370.7 543.01L360.4 544.9L349.97 546.39L339.41 547.47L328.72 548.12L317.93 548.34L307.14 548.12L296.46 547.47L285.9 546.39L275.46 544.9L265.16 543.01L255.01 540.72L245.01 538.03L235.17 534.97L225.49 531.54L216 527.73L206.69 523.58L197.58 519.08L188.67 514.23L179.98 509.06L171.5 503.57L163.26 497.76L155.25 491.65L147.48 485.24L139.97 478.54L132.72 471.57L125.75 464.32L119.05 456.81L112.64 449.05L106.53 441.04L100.72 432.79L95.23 424.31L90.06 415.62L85.22 406.71L80.71 397.6L76.56 388.29L72.76 378.8L69.32 369.13L66.26 359.29L63.58 349.28L61.28 339.13L59.39 328.83L57.9 318.4L56.83 307.83L56.18 297.15L55.96 286.36L56.18 275.57L56.83 264.89L57.9 254.32L59.39 243.89L61.28 233.59L63.58 223.44L66.26 213.43L69.32 203.59L72.76 193.92L76.56 184.43L80.71 175.12L85.22 166.01L90.06 157.1L95.23 148.41L100.72 139.93L106.53 131.68L112.64 123.67L119.05 115.91L125.75 108.4L132.72 101.15L139.97 94.18L147.48 87.48L155.25 81.07L163.26 74.96L171.5 69.15L179.98 63.66L188.67 58.49L197.58 53.64L206.69 49.14L216 44.99L225.49 41.19L235.17 37.75L245.01 34.69L255.01 32L265.16 29.71L275.46 27.82L285.9 26.33L296.46 25.25L307.14 24.6L317.93 24.38L328.72 24.6L339.41 25.25Z" id="iCXHsGyEx"></path><linearGradient id="gradientactW9cktS" gradientUnits="userSpaceOnUse" x1="285.87" y1="24.38" x2="285.87" y2="548.34"><stop style="stop-color: #b21ff7;stop-opacity: 1" offset="0%"></stop><stop style="stop-color: #7964f7;stop-opacity: 1" offset="41.33163888639959%"></stop><stop style="stop-color: #21ccf5;stop-opacity: 1" offset="100%"></stop></linearGradient></defs><g><g><use xlink:href="#iCXHsGyEx" opacity="1" fill="url(#gradientactW9cktS)"></use></g></g></svg>