<?xml version="1.0" encoding="UTF-8" standalone="no"?>
<!DOCTYPE svg PUBLIC "-//W3C//DTD SVG 1.1//EN" "http://www.w3.org/Graphics/SVG/1.1/DTD/svg11.dtd">
<svg version="1.1" xmlns="http://www.w3.org/2000/svg" xmlns:xlink="http://www.w3.org/1999/xlink" preserveAspectRatio="xMidYMid meet" viewBox="95.08712413188411 16.835051546390417 451.82575173623195 509.15463917525915" width="447.83" height="505.15"><defs><path d="M352.9 18.67L362.47 19.71L371.93 21.14L381.26 22.97L390.46 25.18L399.52 27.77L408.44 30.72L417.2 34.03L425.8 37.7L434.24 41.7L442.49 46.04L450.56 50.71L458.44 55.7L466.12 61L473.59 66.59L480.85 72.49L487.88 78.67L494.69 85.12L501.25 91.85L507.58 98.84L513.64 106.08L519.45 113.56L524.99 121.28L530.25 129.24L535.23 137.41L539.91 145.79L543.91 153.62L443.47 153.62L443.34 153.48L439.04 149.07L434.58 144.84L429.98 140.8L425.22 136.94L420.33 133.27L415.3 129.8L410.14 126.54L404.86 123.48L399.45 120.64L393.93 118.01L388.3 115.62L382.56 113.45L376.72 111.51L370.78 109.82L364.76 108.37L358.65 107.17L352.46 106.23L346.19 105.56L339.85 105.15L333.45 105.01L327.05 105.15L320.71 105.56L314.44 106.23L308.25 107.17L302.14 108.37L296.11 109.82L290.18 111.51L284.34 113.45L278.6 115.62L272.97 118.01L267.45 120.64L262.04 123.48L256.75 126.54L251.59 129.8L246.57 133.27L241.67 136.94L236.92 140.8L232.31 144.84L227.86 149.07L223.56 153.48L219.42 158.05L215.44 162.79L211.64 167.7L208.02 172.75L204.57 177.96L201.31 183.31L198.24 188.8L195.37 194.43L192.7 200.18L190.23 206.06L187.98 212.05L185.94 218.16L184.12 224.37L182.53 230.68L181.17 237.1L180.04 243.6L179.16 250.19L178.52 256.85L178.14 263.6L178.01 270.41L178.14 277.23L178.52 283.97L179.16 290.64L180.04 297.23L181.17 303.73L182.53 310.14L184.12 316.46L185.94 322.67L187.98 328.78L190.23 334.77L192.7 340.65L195.37 346.4L198.24 352.02L201.31 357.51L204.57 362.86L208.02 368.07L211.64 373.13L215.44 378.03L219.42 382.77L223.56 387.35L227.86 391.75L232.31 395.98L236.92 400.03L241.67 403.89L246.57 407.55L251.59 411.02L256.75 414.29L262.04 417.34L267.45 420.19L272.97 422.81L278.6 425.21L284.34 427.38L290.18 429.31L296.11 431.01L302.14 432.45L308.25 433.65L314.44 434.59L320.71 435.27L327.05 435.68L333.45 435.82L339.85 435.68L346.19 435.27L352.46 434.59L358.65 433.65L364.76 432.45L370.78 431.01L376.72 429.31L382.56 427.38L388.3 425.21L393.93 422.81L399.45 420.19L404.86 417.34L410.14 414.29L415.3 411.02L420.33 407.55L425.22 403.89L429.98 400.03L434.58 395.98L439.04 391.75L443.34 387.35L443.47 387.2L543.91 387.2L539.91 395.03L535.23 403.42L530.25 411.59L524.99 419.54L519.45 427.26L513.64 434.75L507.58 441.99L501.25 448.98L494.69 455.7L487.88 462.16L480.85 468.34L473.59 474.23L466.12 479.83L458.44 485.13L450.56 490.11L442.49 494.78L434.24 499.12L425.8 503.13L417.2 506.79L408.44 510.1L399.52 513.06L390.46 515.64L381.26 517.85L371.93 519.68L362.47 521.12L352.9 522.15L343.23 522.78L333.45 522.99L323.67 522.78L313.99 522.15L304.42 521.12L294.97 519.68L285.64 517.85L276.44 515.64L267.37 513.06L258.46 510.1L249.69 506.79L241.09 503.13L232.66 499.12L224.41 494.78L216.33 490.11L208.46 485.13L200.78 479.83L193.3 474.23L186.05 468.34L179.01 462.16L172.21 455.7L165.64 448.98L159.32 441.99L153.25 434.75L147.45 427.26L141.91 419.54L136.65 411.59L131.67 403.42L126.98 395.03L122.6 386.45L118.52 377.66L114.75 368.69L111.31 359.53L108.2 350.21L105.42 340.72L102.99 331.08L100.91 321.29L99.2 311.36L97.85 301.3L96.87 291.11L96.29 280.82L96.09 270.41L96.29 260.01L96.87 249.71L97.85 239.53L99.2 229.47L100.91 219.54L102.99 209.75L105.42 200.1L108.2 190.61L111.31 181.29L114.75 172.14L118.52 163.16L122.6 154.38L126.98 145.79L131.67 137.41L136.65 129.24L141.91 121.28L147.45 113.56L153.25 106.08L159.32 98.84L165.64 91.85L172.21 85.12L179.01 78.67L186.05 72.49L193.3 66.59L200.78 61L208.46 55.7L216.33 50.71L224.41 46.04L232.66 41.7L241.09 37.7L249.69 34.03L258.46 30.72L267.37 27.77L276.44 25.18L285.64 22.97L294.97 21.14L304.42 19.71L313.99 18.67L323.67 18.05L333.45 17.84L343.23 18.05L352.9 18.67Z" id="aj15NGUf6"></path><linearGradient id="gradientaPg1ckECx" gradientUnits="userSpaceOnUse" x1="320" y1="17.84" x2="320" y2="522.99"><stop style="stop-color: #b21ff7;stop-opacity: 1" offset="0%"></stop><stop style="stop-color: #7964f7;stop-opacity: 1" offset="48.489795918367335%"></stop><stop style="stop-color: #21ccf5;stop-opacity: 1" offset="100%"></stop></linearGradient><path d="M348.11 137.22L353.06 137.99L357.95 138.96L362.77 140.13L367.52 141.5L372.19 143.07L376.77 144.83L381.28 146.78L385.7 148.91L390.02 151.21L394.25 153.69L398.37 156.34L402.39 159.16L406.31 162.13L410.11 165.26L413.79 168.55L417.36 171.98L420.79 175.55L424.1 179.26L427.28 183.11L430.32 187.08L433.22 191.19L435.98 195.41L438.59 199.75L441.04 204.21L443.34 208.77L445.47 213.44L447.45 218.2L449.25 223.07L450.88 228.02L452.33 233.06L453.61 238.18L454.69 243.38L455.59 248.66L456.3 254L456.81 259.41L457.12 264.88L457.22 270.41L457.12 275.94L456.81 281.41L456.3 286.82L455.59 292.17L454.69 297.44L453.61 302.64L452.33 307.77L450.88 312.81L449.25 317.76L447.45 322.62L445.47 327.39L443.34 332.06L441.04 336.62L438.59 341.07L435.98 345.41L433.22 349.64L430.32 353.74L427.28 357.72L424.1 361.56L420.79 365.28L417.36 368.85L413.79 372.28L410.11 375.56L406.31 378.69L402.39 381.67L398.37 384.48L394.25 387.13L390.02 389.61L385.7 391.92L381.28 394.04L376.77 395.99L372.19 397.75L367.52 399.32L362.77 400.69L357.95 401.87L353.06 402.84L348.11 403.6L343.1 404.15L338.03 404.48L332.91 404.6L327.79 404.48L322.72 404.15L317.71 403.6L312.76 402.84L307.87 401.87L303.05 400.69L298.31 399.32L293.64 397.75L289.05 395.99L284.54 394.04L280.13 391.92L275.8 389.61L271.58 387.13L267.45 384.48L263.43 381.67L259.52 378.69L255.72 375.56L252.03 372.28L248.47 368.85L245.03 365.28L241.72 361.56L238.54 357.72L235.5 353.74L232.6 349.64L229.84 345.41L227.24 341.07L224.78 336.62L222.49 332.06L220.35 327.39L218.38 322.62L216.57 317.76L214.94 312.81L213.49 307.77L212.22 302.64L211.13 297.44L210.23 292.17L209.52 286.82L209.01 281.41L208.71 275.94L208.6 270.41L208.71 264.88L209.01 259.41L209.52 254L210.23 248.66L211.13 243.38L212.22 238.18L213.49 233.06L214.94 228.02L216.57 223.07L218.38 218.2L220.35 213.44L222.49 208.77L224.78 204.21L227.24 199.75L229.84 195.41L232.6 191.19L235.5 187.08L238.54 183.11L241.72 179.26L245.03 175.55L248.47 171.98L252.03 168.55L255.72 165.26L259.52 162.13L263.43 159.16L267.45 156.34L271.58 153.69L275.8 151.21L280.13 148.91L284.54 146.78L289.05 144.83L293.64 143.07L298.31 141.5L303.05 140.13L307.87 138.96L312.76 137.99L317.71 137.22L322.72 136.67L327.79 136.34L332.91 136.23L338.03 136.34L343.1 136.67L343.1 136.67L348.11 137.22ZM324.46 195.58L321.71 196.01L318.99 196.55L316.31 197.21L313.67 197.98L311.07 198.87L308.52 199.85L306.02 200.95L303.56 202.14L301.16 203.44L298.81 204.83L296.51 206.32L294.27 207.9L292.1 209.57L289.98 211.33L287.94 213.18L285.95 215.1L284.04 217.11L282.2 219.2L280.43 221.36L278.74 223.59L277.13 225.9L275.6 228.27L274.15 230.71L272.78 233.21L271.51 235.78L270.32 238.4L269.22 241.08L268.22 243.81L267.31 246.59L266.5 249.43L265.8 252.3L265.19 255.23L264.69 258.19L264.3 261.19L264.02 264.23L263.84 267.31L263.79 270.41L263.84 273.52L264.02 276.59L264.3 279.63L264.69 282.63L265.19 285.6L265.8 288.52L266.5 291.4L267.31 294.23L268.22 297.01L269.22 299.75L270.32 302.43L271.51 305.05L272.78 307.61L274.15 310.11L275.6 312.55L277.13 314.93L278.74 317.23L280.43 319.47L282.2 321.63L284.04 323.71L285.95 325.72L287.94 327.65L289.98 329.49L292.1 331.25L294.27 332.92L296.51 334.5L298.81 335.99L301.16 337.38L303.56 338.68L306.02 339.88L308.52 340.97L311.07 341.96L313.67 342.84L316.31 343.61L318.99 344.27L321.71 344.82L324.46 345.25L327.25 345.56L330.06 345.74L332.91 345.81L335.76 345.74L338.58 345.56L341.36 345.25L344.12 344.82L346.84 344.27L349.52 343.61L352.15 342.84L354.75 341.96L357.3 340.97L359.81 339.88L362.26 338.68L364.67 337.38L367.02 335.99L369.31 334.5L371.55 332.92L373.73 331.25L375.84 329.49L377.89 327.65L379.87 325.72L381.78 323.71L383.62 321.63L385.39 319.47L387.08 317.23L388.69 314.93L390.22 312.55L391.67 310.11L393.04 307.61L394.32 305.05L395.5 302.43L396.6 299.75L397.6 297.01L398.51 294.23L399.32 291.4L400.03 288.52L400.63 285.6L401.13 282.63L401.52 279.63L401.81 276.59L401.98 273.52L402.04 270.41L401.98 267.31L401.81 264.23L401.52 261.19L401.13 258.19L400.63 255.23L400.03 252.3L399.32 249.43L398.51 246.59L397.6 243.81L396.6 241.08L395.5 238.4L394.32 235.78L393.04 233.21L391.67 230.71L390.22 228.27L388.69 225.9L387.08 223.59L385.39 221.36L383.62 219.2L381.78 217.11L379.87 215.1L377.89 213.18L375.84 211.33L373.73 209.57L371.55 207.9L369.31 206.32L367.02 204.83L364.67 203.44L362.26 202.14L359.81 200.95L357.3 199.85L354.75 198.87L352.15 197.98L349.52 197.21L346.84 196.55L344.12 196.01L341.36 195.58L338.58 195.27L335.76 195.08L332.91 195.02L330.06 195.08L327.25 195.27L327.25 195.27L324.46 195.58Z" id="c3ELvQKMdR"></path><linearGradient id="gradientd1gBEcF0xz" gradientUnits="userSpaceOnUse" x1="332.91" y1="136.23" x2="332.91" y2="404.6"><stop style="stop-color: #b023f8;stop-opacity: 1" offset="0%"></stop><stop style="stop-color: #7866f7;stop-opacity: 1" offset="46.796536796536735%"></stop><stop style="stop-color: #23caf5;stop-opacity: 1" offset="100%"></stop></linearGradient></defs><g><g><use xlink:href="#aj15NGUf6" opacity="1" fill="url(#gradientaPg1ckECx)"></use></g><g><use xlink:href="#c3ELvQKMdR" opacity="1" fill="url(#gradientd1gBEcF0xz)"></use></g></g></svg>