<?xml version="1.0" encoding="UTF-8" standalone="no"?>
<!DOCTYPE svg PUBLIC "-//W3C//DTD SVG 1.1//EN" "http://www.w3.org/Graphics/SVG/1.1/DTD/svg11.dtd">
<svg version="1.1" xmlns="http://www.w3.org/2000/svg" xmlns:xlink="http://www.w3.org/1999/xlink" preserveAspectRatio="xMidYMid meet" viewBox="141.76595744680856 130.3981762917932 407.03951330177244 339.8662613981762" width="403.04" height="335.87"><defs><path d="M251.79 131.69L255.86 132.06L259.87 132.56L263.84 133.21L267.74 133.99L271.59 134.91L275.38 135.96L279.1 137.14L282.75 138.45L286.33 139.89L289.83 141.45L293.26 143.13L296.6 144.93L299.86 146.85L303.04 148.89L306.12 151.04L309.1 153.3L311.99 155.66L314.78 158.14L317.46 160.72L320.03 163.4L322.5 166.18L324.85 169.06L327.08 172.04L329.19 175.11L331.18 178.27L333.04 181.52L334.77 184.85L336.37 188.27L337.83 191.78L339.15 195.36L340.33 199.02L341.36 202.76L342.24 206.57L342.96 210.45L343.54 214.41L343.95 218.43L344.2 222.51L344.28 226.66L344.36 222.51L344.61 218.43L345.03 214.41L345.6 210.46L346.33 206.57L347.21 202.76L348.24 199.03L349.42 195.37L350.74 191.78L352.2 188.28L353.8 184.86L355.53 181.52L357.39 178.27L359.38 175.11L361.49 172.05L363.72 169.07L366.07 166.19L368.54 163.41L371.11 160.73L373.79 158.15L376.58 155.67L379.47 153.3L382.45 151.04L385.53 148.9L388.71 146.86L391.97 144.94L395.31 143.14L398.74 141.46L402.24 139.9L405.82 138.46L409.47 137.15L413.19 135.97L416.98 134.92L420.83 134L424.74 133.22L428.7 132.57L432.71 132.07L436.78 131.7L440.89 131.48L445.04 131.41L449.2 131.49L453.31 131.74L457.37 132.16L461.39 132.73L465.35 133.46L469.26 134.34L473.11 135.37L476.9 136.55L480.62 137.87L484.27 139.33L487.85 140.93L491.35 142.66L494.78 144.53L498.12 146.52L501.38 148.63L504.56 150.87L507.64 153.22L510.62 155.68L513.51 158.26L516.3 160.94L518.98 163.73L521.55 166.62L524.02 169.61L526.37 172.69L528.6 175.87L530.71 179.13L532.7 182.48L534.56 185.91L536.29 189.42L537.89 193L539.35 196.65L540.67 200.38L541.85 204.17L542.88 208.02L543.76 211.93L544.49 215.89L545.06 219.91L545.47 223.98L545.72 228.09L545.81 232.25L545.43 243.67L544.35 254.8L542.58 265.64L540.17 276.19L537.15 286.46L533.57 296.43L529.45 306.11L524.85 315.51L519.8 324.62L514.32 333.44L508.47 341.98L502.28 350.23L495.79 358.19L489.03 365.87L482.05 373.27L474.88 380.38L467.55 387.21L460.12 393.76L452.6 400.02L445.05 406L437.5 411.7L429.99 417.12L422.55 422.26L415.23 427.12L408.05 431.71L401.07 436.01L394.31 440.03L387.82 443.78L381.63 447.25L375.78 450.44L370.31 453.36L365.25 456L360.65 458.36L356.53 460.46L352.95 462.27L349.93 463.82L347.52 465.09L345.75 466.08L344.66 466.81L344.29 467.26L343.92 466.81L342.83 466.08L341.06 465.09L338.65 463.82L335.63 462.27L332.05 460.46L327.94 458.36L323.33 456L318.28 453.36L312.8 450.44L306.95 447.25L300.76 443.78L294.27 440.03L287.51 436.01L280.53 431.7L273.35 427.12L266.03 422.26L258.59 417.12L251.08 411.7L243.53 406L235.98 400.02L228.46 393.75L221.03 387.21L213.7 380.38L206.53 373.27L199.55 365.87L192.79 358.19L186.3 350.22L180.1 341.97L174.25 333.44L168.78 324.61L163.72 315.5L159.12 306.11L155.01 296.42L151.43 286.45L148.41 276.19L146 265.64L144.23 254.79L143.14 243.66L142.77 232.24L142.85 228.08L143.1 223.97L143.51 219.9L144.08 215.88L144.81 211.92L145.69 208.01L146.73 204.16L147.9 200.37L149.22 196.64L150.68 192.99L152.28 189.41L154.01 185.9L155.87 182.47L157.86 179.12L159.97 175.86L162.21 172.68L164.56 169.6L167.02 166.61L169.6 163.72L172.28 160.93L175.07 158.25L177.95 155.67L180.94 153.21L184.02 150.86L187.19 148.62L190.45 146.51L193.8 144.52L197.22 142.65L200.73 140.92L204.31 139.32L207.96 137.86L211.68 136.54L215.47 135.36L219.31 134.33L223.22 133.45L227.18 132.72L231.2 132.15L235.26 131.73L239.38 131.48L243.53 131.4L247.68 131.47L251.79 131.69ZM325.03 254.38L324.94 254.38L324.84 254.39L324.74 254.41L324.65 254.43L324.56 254.45L324.47 254.47L324.38 254.5L324.29 254.53L324.2 254.57L324.12 254.6L324.03 254.64L323.95 254.69L323.87 254.74L323.79 254.79L323.72 254.84L323.65 254.89L323.58 254.95L323.51 255.01L323.44 255.08L323.38 255.14L323.32 255.21L323.26 255.28L323.2 255.36L323.15 255.43L323.1 255.51L323.05 255.59L323.01 255.67L322.96 255.75L322.93 255.84L322.89 255.93L322.86 256.01L322.83 256.1L322.81 256.2L322.79 256.29L322.77 256.38L322.76 256.48L322.75 256.57L322.74 256.67L322.74 256.77L322.74 304.65L274.86 304.65L274.76 304.66L274.66 304.66L274.56 304.67L274.47 304.68L274.37 304.7L274.28 304.72L274.19 304.75L274.1 304.78L274.01 304.81L273.92 304.84L273.84 304.88L273.76 304.92L273.67 304.97L273.6 305.01L273.52 305.06L273.44 305.12L273.37 305.17L273.3 305.23L273.23 305.29L273.16 305.36L273.1 305.42L273.04 305.49L272.98 305.56L272.92 305.63L272.87 305.71L272.82 305.79L272.77 305.87L272.73 305.95L272.69 306.03L272.65 306.12L272.62 306.2L272.58 306.29L272.56 306.38L272.53 306.47L272.51 306.57L272.49 306.66L272.48 306.75L272.47 306.85L272.46 306.95L272.46 307.05L272.46 345.35L272.46 345.45L272.47 345.55L272.48 345.65L272.49 345.74L272.51 345.84L272.53 345.93L272.56 346.02L272.58 346.11L272.62 346.2L272.65 346.29L272.69 346.37L272.73 346.45L272.77 346.53L272.82 346.61L272.87 346.69L272.92 346.77L272.98 346.84L273.04 346.91L273.1 346.98L273.16 347.05L273.23 347.11L273.3 347.17L273.37 347.23L273.44 347.29L273.52 347.34L273.6 347.39L273.67 347.44L273.76 347.48L273.84 347.52L273.92 347.56L274.01 347.59L274.1 347.63L274.19 347.65L274.28 347.68L274.37 347.7L274.47 347.72L274.56 347.73L274.66 347.74L274.76 347.75L274.86 347.75L322.74 347.75L322.74 395.63L322.74 395.73L322.75 395.83L322.76 395.92L322.77 396.02L322.79 396.11L322.81 396.21L322.83 396.3L322.86 396.39L322.89 396.47L322.93 396.56L322.96 396.65L323.01 396.73L323.05 396.81L323.1 396.89L323.15 396.97L323.2 397.04L323.26 397.12L323.32 397.19L323.38 397.26L323.44 397.32L323.51 397.39L323.58 397.45L323.65 397.51L323.72 397.56L323.79 397.62L323.87 397.67L323.95 397.71L324.03 397.76L324.12 397.8L324.2 397.84L324.29 397.87L324.38 397.9L324.47 397.93L324.56 397.95L324.65 397.98L324.74 397.99L324.84 398.01L324.94 398.02L325.03 398.02L325.13 398.02L363.44 398.02L363.54 398.02L363.63 398.02L363.73 398.01L363.83 397.99L363.92 397.98L364.01 397.95L364.11 397.93L364.2 397.9L364.28 397.87L364.37 397.84L364.46 397.8L364.54 397.76L364.62 397.71L364.7 397.67L364.78 397.62L364.85 397.56L364.93 397.51L365 397.45L365.07 397.39L365.13 397.32L365.2 397.26L365.26 397.19L365.31 397.12L365.37 397.04L365.42 396.97L365.47 396.89L365.52 396.81L365.57 396.73L365.61 396.65L365.64 396.56L365.68 396.47L365.71 396.39L365.74 396.3L365.76 396.21L365.78 396.11L365.8 396.02L365.82 395.92L365.82 395.83L365.83 395.73L365.83 395.63L365.83 347.75L413.72 347.75L413.81 347.75L413.91 347.74L414.01 347.73L414.1 347.72L414.2 347.7L414.29 347.68L414.38 347.65L414.47 347.63L414.56 347.59L414.65 347.56L414.73 347.52L414.82 347.48L414.9 347.44L414.98 347.39L415.05 347.34L415.13 347.29L415.2 347.23L415.27 347.17L415.34 347.11L415.41 347.05L415.47 346.98L415.53 346.91L415.59 346.84L415.65 346.77L415.7 346.69L415.75 346.61L415.8 346.53L415.84 346.45L415.88 346.37L415.92 346.29L415.96 346.2L415.99 346.11L416.02 346.02L416.04 345.93L416.06 345.84L416.08 345.74L416.09 345.65L416.1 345.55L416.11 345.45L416.11 345.35L416.11 307.05L416.11 306.95L416.1 306.85L416.09 306.75L416.08 306.66L416.06 306.57L416.04 306.47L416.02 306.38L415.99 306.29L415.96 306.2L415.92 306.12L415.88 306.03L415.84 305.95L415.8 305.87L415.75 305.79L415.7 305.71L415.65 305.63L415.59 305.56L415.53 305.49L415.47 305.42L415.41 305.36L415.34 305.29L415.27 305.23L415.2 305.17L415.13 305.12L415.05 305.06L414.98 305.01L414.9 304.97L414.82 304.92L414.73 304.88L414.65 304.84L414.56 304.81L414.47 304.78L414.38 304.75L414.29 304.72L414.2 304.7L414.1 304.68L414.01 304.67L413.91 304.66L413.81 304.66L413.72 304.65L365.83 304.65L365.83 256.77L365.83 256.67L365.82 256.57L365.82 256.48L365.8 256.38L365.78 256.29L365.76 256.2L365.74 256.1L365.71 256.01L365.68 255.93L365.64 255.84L365.61 255.75L365.57 255.67L365.52 255.59L365.47 255.51L365.42 255.43L365.37 255.36L365.31 255.28L365.26 255.21L365.2 255.14L365.13 255.08L365.07 255.01L365 254.95L364.93 254.89L364.85 254.84L364.78 254.79L364.7 254.74L364.62 254.69L364.54 254.64L364.46 254.6L364.37 254.57L364.28 254.53L364.2 254.5L364.11 254.47L364.01 254.45L363.92 254.43L363.83 254.41L363.73 254.39L363.63 254.38L363.54 254.38L363.44 254.38L325.13 254.38L325.03 254.38Z" id="cglfyoPHC"></path></defs><g><g><use xlink:href="#cglfyoPHC" opacity="1" fill="#ffffff" fill-opacity="1"></use><g><use xlink:href="#cglfyoPHC" opacity="1" fill-opacity="0" stroke="#c5c5c5" stroke-width="1" stroke-opacity="1"></use></g></g></g></svg>